<?xml version="1.0" encoding="UTF-8" standalone="no"?>
<!-- Created with Inkscape (http://www.inkscape.org/) -->
<svg
   xmlns:dc="http://purl.org/dc/elements/1.1/"
   xmlns:cc="http://web.resource.org/cc/"
   xmlns:rdf="http://www.w3.org/1999/02/22-rdf-syntax-ns#"
   xmlns:svg="http://www.w3.org/2000/svg"
   xmlns="http://www.w3.org/2000/svg"
   xmlns:xlink="http://www.w3.org/1999/xlink"
   xmlns:sodipodi="http://sodipodi.sourceforge.net/DTD/sodipodi-0.dtd"
   xmlns:inkscape="http://www.inkscape.org/namespaces/inkscape"
   width="210mm"
   height="297mm"
   id="svg2"
   sodipodi:version="0.32"
   inkscape:version="0.45"
   sodipodi:docbase="/home/lucas/projetos/riqueza/doc"
   sodipodi:docname="desenho.svg"
   inkscape:output_extension="org.inkscape.output.svg.inkscape"
   sodipodi:modified="true">
  <defs
     id="defs4">
    <linearGradient
       id="linearGradient5160">
      <stop
         style="stop-color:#000000;stop-opacity:1;"
         offset="0"
         id="stop5162" />
      <stop
         style="stop-color:#000000;stop-opacity:0.49640289;"
         offset="1"
         id="stop5164" />
    </linearGradient>
    <linearGradient
       id="linearGradient4183">
      <stop
         style="stop-color:#000000;stop-opacity:1;"
         offset="0"
         id="stop4185" />
      <stop
         style="stop-color:#4a4b4f;stop-opacity:1;"
         offset="1"
         id="stop4187" />
    </linearGradient>
    <linearGradient
       inkscape:collect="always"
       xlink:href="#linearGradient5160"
       id="linearGradient5166"
       x1="-80.108627"
       y1="20.871365"
       x2="-78.907471"
       y2="47.969021"
       gradientUnits="userSpaceOnUse" />
    <linearGradient
       inkscape:collect="always"
       xlink:href="#linearGradient5160"
       id="linearGradient6144"
       gradientUnits="userSpaceOnUse"
       x1="-80.108627"
       y1="20.871365"
       x2="-78.907471"
       y2="47.969021"
       gradientTransform="translate(-4,0)" />
    <linearGradient
       inkscape:collect="always"
       xlink:href="#linearGradient5160"
       id="linearGradient6178"
       gradientUnits="userSpaceOnUse"
       gradientTransform="translate(-4,0)"
       x1="-80.108627"
       y1="20.871365"
       x2="-78.907471"
       y2="47.969021" />
    <linearGradient
       inkscape:collect="always"
       xlink:href="#linearGradient4183"
       id="linearGradient6180"
       gradientUnits="userSpaceOnUse"
       gradientTransform="matrix(1,0,0,2.2932477,-1.8141826,-177.94379)"
       x1="24.03125"
       y1="310.65625"
       x2="44.4375"
       y2="310.65625" />
    <linearGradient
       inkscape:collect="always"
       xlink:href="#linearGradient5160"
       id="linearGradient6186"
       gradientUnits="userSpaceOnUse"
       gradientTransform="translate(-14.950268,76.086234)"
       x1="-80.108627"
       y1="20.871365"
       x2="-78.907471"
       y2="47.969021" />
  </defs>
  <sodipodi:namedview
     id="base"
     pagecolor="#ffffff"
     bordercolor="#666666"
     borderopacity="1.0"
     inkscape:pageopacity="0.0"
     inkscape:pageshadow="2"
     inkscape:zoom="0.32563708"
     inkscape:cx="257.92165"
     inkscape:cy="368.16731"
     inkscape:document-units="px"
     inkscape:current-layer="g9199"
     inkscape:window-width="1024"
     inkscape:window-height="693"
     inkscape:window-x="0"
     inkscape:window-y="25"
     showguides="true"
     inkscape:guide-bbox="true" />
  <metadata
     id="metadata7">
    <rdf:RDF>
      <cc:Work
         rdf:about="">
        <dc:format>image/svg+xml</dc:format>
        <dc:type
           rdf:resource="http://purl.org/dc/dcmitype/StillImage" />
      </cc:Work>
    </rdf:RDF>
  </metadata>
  <g
     inkscape:label="Camada 1"
     inkscape:groupmode="layer"
     id="layer1">
    <g
       id="g6244"
       transform="translate(157.35154,86.48329)"
       inkscape:export-filename="/home/lucas/projetos/riqueza/public/images/riqueza.png"
       inkscape:export-xdpi="90"
       inkscape:export-ydpi="90">
      <g
         id="g9213"
         inkscape:export-filename="/home/lucas/projetos/riqueza/public/images/riqueza.png"
         inkscape:export-xdpi="90"
         inkscape:export-ydpi="90">
        <g
           transform="translate(67.559874,-102.77258)"
           id="g9199">
          <path
             d="M 144.54288,638.5041 C 104.52023,646.97633 175.97311,643.09507 134.76964,636.28092 C 93.566183,629.46677 161.84294,654.52428 124.48566,636.05198 C 87.128375,617.57967 147.37004,658.9034 119.4736,628.87808 C 91.577168,598.85277 128.18865,660.00846 111.51296,622.47545 C 94.837273,584.94244 114.42736,653.89302 113.24507,612.3199 C 112.06279,570.74679 99.761846,641.68445 111.36456,602.25906 C 122.96727,562.83366 91.897535,629.41764 117.56324,596.72665 C 143.22894,564.03567 88.061564,608.02412 123.336,587.18169 C 158.61044,566.33925 92.192066,594.72985 132.71155,586.79555 C 173.23101,578.86126 101.60617,577.91812 142.48762,583.49642 C 183.36908,589.07472 112.03086,570.97237 149.44506,589.45768 C 186.85925,607.94298 130.60809,561.62674 158.46587,592.47785 C 186.32366,623.32896 147.27797,562.88659 161.70653,601.84423 C 176.13509,640.80185 163.8824,569.45246 166.47851,610.88829 C 169.07462,652.32413 176.36807,579.43068 162.46522,618.70423 C 148.56238,657.97777 185.63091,597.4713 160.29958,629.50713 C 134.96825,661.54297 187.96564,611.12464 151.9602,632.29977 C 115.95476,653.47488 184.56552,630.03188 144.54288,638.5041 z "
             inkscape:randomized="-0.024"
             inkscape:rounded="4.23"
             inkscape:flatsided="false"
             sodipodi:arg2="1.7058015"
             sodipodi:arg1="1.3567356"
             sodipodi:r2="25.161966"
             sodipodi:r1="28.271873"
             sodipodi:cy="611.53766"
             sodipodi:cx="138.13303"
             sodipodi:sides="9"
             id="path6240"
             style="fill:#d42626;fill-opacity:1;stroke:none;stroke-width:0.5;stroke-miterlimit:4;stroke-dasharray:none;stroke-opacity:1"
             sodipodi:type="star"
             transform="translate(-13.212725,-61.258998)" />
          <path
             transform="matrix(0.969084,0,0,1.0467142,16.230412,-52.972259)"
             d="M 123.31488,737.84794 C 26.250435,721.04205 189.56228,770.40954 103.02949,721.56868 C 16.496678,672.7278 145.46536,788.77393 81.946471,712.5761 C 18.4276,636.37829 108.85796,786.85205 78.563081,691.98248 C 48.268197,597.11289 67.099563,769.82073 69.463369,670.24464 C 71.827175,570.66857 41.913719,741.01226 78.719161,648.56861 C 115.52461,556.12495 20.327937,700.94224 86.648167,626.87328 C 152.96838,552.80433 23.937848,667.2806 108.15418,618.35738 C 192.37052,569.43414 27.632071,621.99757 125.36727,603.92225 C 223.10244,585.84694 49.417166,594.92314 146.24594,611.43999 C 243.07475,627.95684 86.584107,567.32744 172.33447,615.34472 C 258.0848,663.36198 118.62673,558.3134 183.10069,633.91409 C 247.57467,709.51481 165.88902,558.22361 198.58631,651.6136 C 231.28358,745.00356 198.54462,574.36789 195.76203,673.18008 C 192.97945,771.99231 236.8252,604.86689 198.12279,696.50115 C 159.42038,788.13539 246.13644,637.0519 180.67743,710.53368 C 115.2184,784.01547 253.42835,681.0018 168.32846,729.51462 C 83.228598,778.02743 239.77949,713.94872 143.43901,731.97865 C 47.098512,750.0086 220.37934,754.65383 123.31488,737.84794 z "
             inkscape:randomized="-0.024"
             inkscape:rounded="4.23"
             inkscape:flatsided="false"
             sodipodi:arg2="2.1172577"
             sodipodi:arg1="1.7681919"
             sodipodi:r2="59.961025"
             sodipodi:r1="67.371941"
             sodipodi:cy="671.59546"
             sodipodi:cx="135.73071"
             sodipodi:sides="9"
             id="path6242"
             style="fill:#d42626;fill-opacity:1;stroke:none;stroke-width:0.5;stroke-miterlimit:4;stroke-dasharray:none;stroke-opacity:1"
             sodipodi:type="star" />
          <path
             transform="matrix(0.8543627,0,0,0.8403405,16.46641,59.639117)"
             d="M 181.26151,354.08998 C 136.90014,389.49817 225.87108,345.93132 171.13833,364.89472 C 116.4056,383.85811 216.06215,360.21091 158.22003,362.17764 C 100.3779,364.14436 198.12696,385.49539 144.52596,364.06842 C 90.924983,342.64145 180.44456,390.10478 136.39636,354.20529 C 92.348154,318.30579 155.07461,396.54492 124.57814,347.28913 C 94.081668,298.03335 134.98544,391.65798 124.76467,334.89737 C 114.5439,278.13676 111.20067,378.29411 120.50939,321.8168 C 129.81811,265.3395 101.47475,359.98313 128.79289,309.88444 C 156.11103,259.78574 88.532928,333.55487 133.78674,297.37786 C 179.04054,261.20085 92.853074,316.13987 145.84941,295.91481 C 198.84577,275.68975 100.04962,290.10148 157.85022,288.13528 C 215.65079,286.16908 117.21475,274.79601 171.28705,295.54758 C 225.35936,316.29915 138.17045,261.11376 183.03711,297.88412 C 227.90377,334.65447 159.2396,262.12159 189.36684,310.80186 C 219.49409,359.48215 186.32338,264.73255 197.60003,321.4444 C 208.87667,378.15623 201.57232,277.15184 193.56744,334.15519 C 185.56256,391.15856 220.51915,298.42968 193.10395,348.30539 C 165.68876,398.18108 225.62286,318.6818 181.26151,354.08998 z "
             inkscape:randomized="-0.024"
             inkscape:rounded="4.23"
             inkscape:flatsided="false"
             sodipodi:arg2="1.2212024"
             sodipodi:arg1="0.8721365"
             sodipodi:r2="39.217358"
             sodipodi:r1="34.90345"
             sodipodi:cy="328.06464"
             sodipodi:cx="158.5527"
             sodipodi:sides="9"
             id="path6232"
             style="fill:#d42626;fill-opacity:1;stroke:none;stroke-width:0.5;stroke-miterlimit:4;stroke-dasharray:none;stroke-opacity:1"
             sodipodi:type="star" />
          <path
             d="M 150.51443,432.04068 C 105.7376,449.8349 185.56416,426.92957 138.14932,431.48271 C 90.73448,436.03585 173.52019,447.9103 127.91323,433.61497 C 82.306283,419.31964 158.03186,455.74696 119.36645,426.40699 C 80.701044,397.067 135.96401,460.3716 109.44679,420.8735 C 82.929577,381.37541 119.79385,455.35838 108.20671,409.09001 C 96.619562,362.82163 100.26654,446.51658 104.99223,398.59319 C 109.71791,350.66981 89.301488,432.64255 110.0047,389.75051 C 130.70791,346.85846 78.477977,411.54096 113.61366,378.46548 C 148.74934,345.39001 82.722529,396.87853 125.89346,376.01632 C 169.06441,355.1541 87.650358,373.03083 134.95351,369.53822 C 182.25665,366.04562 98.375115,359.09169 144.32999,374.12979 C 190.28487,389.1679 118.96116,347.45964 156.22535,376.75638 C 193.48953,406.05311 134.94414,346.97512 161.46247,386.62426 C 187.9808,426.2734 156.90235,347.51735 169.49455,394.32334 C 182.08675,441.12931 171.17017,358.74846 165.84642,406.28207 C 160.52267,453.81569 186.75321,373.29039 166.732,417.49516 C 146.71079,461.69992 191.20628,389.87858 157.08141,423.19897 C 122.95653,456.51936 195.29128,414.24647 150.51443,432.04068 z "
             inkscape:randomized="-0.024"
             inkscape:rounded="4.23"
             inkscape:flatsided="false"
             sodipodi:arg2="1.5053553"
             sodipodi:arg1="1.1562895"
             sodipodi:r2="29.198404"
             sodipodi:r1="32.807198"
             sodipodi:cy="402.53635"
             sodipodi:cx="136.93188"
             sodipodi:sides="9"
             id="path6234"
             style="fill:#d42626;fill-opacity:1;stroke:none;stroke-width:0.5;stroke-miterlimit:4;stroke-dasharray:none;stroke-opacity:1"
             sodipodi:type="star" />
          <path
             d="M 163.63328,525.02763 C 90.218847,528.57088 219.03249,538.45953 148.36071,517.88168 C 77.688907,497.30383 191.95405,557.21688 131.59646,514.90815 C 71.238889,472.59943 163.55539,560.28494 122.53727,499.5252 C 81.519146,438.76545 130.7113,557.65233 112.80687,485.03238 C 94.902437,412.41244 106.38277,543.78524 116.24951,469.76377 C 126.11626,395.74227 82.078071,517.81677 115.90093,452.20719 C 149.72378,386.59763 75.6026,491.05539 130.21309,440.71311 C 184.8236,390.37081 72.421289,457.05901 140.20107,427.12014 C 207.98084,397.18129 83.635986,435.33394 157.29227,429.71237 C 230.94858,424.0908 103.07119,402.50229 174.31761,424.6998 C 245.56401,446.89732 127.83471,392.49693 186.92886,435.74583 C 246.02302,478.99475 164.23223,383.63649 203.94827,445.34816 C 243.6643,507.05982 185.10455,390.73688 204.91371,462.24875 C 224.72288,533.76063 217.66466,405.65155 210.21934,478.58631 C 202.77402,551.52105 233.76669,426.7939 200.60626,493.78558 C 167.44582,560.77728 250.91945,459.70988 196.6986,510.84407 C 142.47777,561.97824 248.23611,484.33033 180.34659,513.3556 C 112.45704,542.38088 237.04773,521.48438 163.63328,525.02763 z "
             inkscape:randomized="-0.024"
             inkscape:rounded="4.23"
             inkscape:flatsided="false"
             sodipodi:arg2="1.8485547"
             sodipodi:arg1="1.4994889"
             sodipodi:r2="45.013634"
             sodipodi:r1="50.577118"
             sodipodi:cy="473.4046"
             sodipodi:cx="160.95502"
             sodipodi:sides="9"
             id="path6236"
             style="fill:#d42626;fill-opacity:1;stroke:none;stroke-width:0.5;stroke-miterlimit:4;stroke-dasharray:none;stroke-opacity:1"
             sodipodi:type="star"
             transform="translate(-12.011568,1.2011568)" />
        </g>
        <g
           transform="translate(86.097152,-12.283613)"
           id="g9207"
           style="fill:#000000;fill-opacity:1">
          <text
             xml:space="preserve"
             style="font-size:48px;font-style:normal;font-variant:normal;font-weight:normal;font-stretch:normal;text-align:start;line-height:125%;writing-mode:lr-tb;text-anchor:start;fill:#000000;fill-opacity:1;stroke:none;stroke-width:1px;stroke-linecap:butt;stroke-linejoin:miter;stroke-opacity:1;font-family:Bitstream Vera Sans"
             x="-194.73207"
             y="135.95712"
             id="text8216"
             sodipodi:linespacing="125%"
             transform="matrix(0,-1,1,0,0,0)"><tspan
               sodipodi:role="line"
               id="tspan8218"
               x="-194.73207"
               y="135.95712">Riqueza</tspan></text>
          <text
             xml:space="preserve"
             style="font-size:22.76874161px;font-style:normal;font-weight:normal;fill:#9b9b9b;fill-opacity:1;stroke:none;stroke-width:1px;stroke-linecap:butt;stroke-linejoin:miter;stroke-opacity:1;font-family:Bitstream Vera Sans"
             x="-56.770947"
             y="156.10881"
             id="text8226"
             transform="matrix(0,-0.9753612,1.0252612,0,0,0)"><tspan
               sodipodi:role="line"
               id="tspan8228"
               x="-56.770947"
               y="156.10881">beta</tspan></text>
        </g>
      </g>
    </g>
    <path
       style="fill:#000000;fill-opacity:1;stroke:none;stroke-width:0.5;stroke-miterlimit:4;stroke-dasharray:none;stroke-opacity:1"
       d="M 68.693765,155.10484 L 68.693765,798.9265 L 128.76401,798.9265 L 128.76401,336.60873 L 109.44952,336.60873 L 109.44952,324.84713 C 109.44955,320.90945 110.10603,318.02627 111.35927,316.19755 C 112.61256,314.35554 114.59645,313.45168 117.30553,313.45165 C 119.17912,313.45168 120.70367,313.90933 121.90628,314.87037 C 123.10892,315.8181 123.98424,317.25017 124.55389,319.17227 C 124.78179,318.1178 125.30622,317.20822 126.11641,316.38061 C 126.73879,315.72438 127.63279,315.03134 128.76401,314.36695 L 128.76401,305.39702 L 116.56767,305.39702 L 116.56767,298.21191 L 128.76401,298.21191 L 128.76401,292.81165 C 128.25974,292.85911 127.73758,292.90318 127.20149,292.90318 C 123.92274,292.90318 121.23536,292.02411 119.17187,290.24881 C 117.09579,288.47352 116.09025,286.1929 116.09023,283.42983 C 116.09025,281.86812 116.376,280.49897 116.9583,279.31098 C 117.54064,278.12302 118.43946,277.00368 119.69271,276.0159 L 116.56767,276.0159 L 116.56767,268.8308 L 128.76401,268.8308 L 128.76401,262.14911 L 116.56767,262.14911 L 116.56767,254.91825 L 118.69443,254.91825 C 119.84644,254.91823 121.2878,254.95067 123.03477,254.96401 C 124.7691,254.97738 125.92471,254.96403 126.50704,254.96401 C 127.38659,254.96403 128.13595,254.943 128.76401,254.91825 L 128.76401,246.90938 C 128.22999,246.82148 127.64917,246.77208 127.02788,246.77208 L 116.56767,246.77208 L 116.56767,239.58698 L 128.76401,239.58698 L 128.76401,234.23248 C 128.26356,234.28426 127.73819,234.36978 127.20149,234.36978 C 123.73285,234.36979 120.98579,233.23138 118.99826,231.02893 C 117.01076,228.81315 116.04686,225.79266 116.04683,221.9217 C 116.04684,218.3978 117.02886,215.56421 119.04166,213.45518 C 121.05451,211.33286 123.74732,210.29741 127.11469,210.2974 L 128.76401,210.2974 L 128.76401,202.10547 L 121.42885,194.64578 L 121.42885,205.99549 L 116.56767,205.99549 L 116.56767,186.40808 L 121.29864,186.40808 L 128.76401,193.9593 L 128.76401,182.28923 C 127.5799,181.85765 126.64446,181.08662 125.9428,180.00099 C 124.77814,178.18565 124.20668,175.31391 124.20666,171.44294 L 124.20666,167.23256 L 123.68582,167.23256 C 122.60979,167.23259 121.79237,167.66543 121.29864,168.55974 C 120.7923,169.45409 120.56079,170.8747 120.56078,172.77012 C 120.56079,174.30517 120.70367,175.70482 120.99481,177.02626 C 121.28598,178.34774 121.7146,179.59863 122.29691,180.73323 L 117.13191,180.73323 C 116.77748,179.19819 116.4845,177.65934 116.30725,176.11096 C 116.11739,174.56258 116.04686,172.99133 116.04683,171.44294 C 116.04684,167.39847 116.7847,164.4905 118.3038,162.70183 C 119.81028,160.89986 122.27702,160.00171 125.68238,160.00169 L 128.76401,160.00169 L 128.76401,155.10484 L 68.693765,155.10484 z M 128.76401,160.00169 L 128.76401,167.23256 L 129.02443,167.23256 C 130.4043,167.23259 131.57258,167.68451 132.4967,168.60551 C 133.40817,169.52655 133.84219,170.68974 133.84221,172.03788 C 133.84221,173.11909 133.58541,173.94096 133.10435,174.55495 C 132.61065,175.15562 131.96864,175.47025 131.1078,175.47025 C 130.17102,175.47025 129.46209,175.07363 128.98103,174.32613 C 128.90425,174.20469 128.82854,174.0544 128.76401,173.91424 L 128.76401,182.28923 C 129.54536,182.57402 130.46361,182.70112 131.45502,182.70112 C 133.50584,182.70112 135.15515,181.99177 136.4464,180.55017 C 137.72498,179.09522 138.35615,177.19788 138.35615,174.87531 C 138.35615,173.15342 138.07039,171.68321 137.48808,170.48187 C 136.8931,169.28056 135.95811,168.19365 134.66687,167.23256 L 137.83531,167.23256 L 137.83531,160.00169 L 128.76401,160.00169 z M 128.76401,173.91424 L 128.76401,167.23256 L 128.24317,167.23256 L 128.24317,170.93952 C 128.24319,172.1959 128.42427,173.17637 128.76401,173.91424 z M 128.76401,193.9593 L 128.76401,202.10547 L 133.06095,206.49891 L 137.83531,206.49891 L 137.83531,186.40808 L 132.97414,186.40808 L 132.97414,198.21545 L 128.76401,193.9593 z M 128.76401,210.2974 L 128.76401,234.23248 C 131.55698,233.94351 133.78409,232.88491 135.44813,230.98317 C 137.39766,228.72734 138.35615,225.56767 138.35615,221.50982 C 138.35615,219.81462 138.1952,218.12514 137.87871,216.42991 C 137.57489,214.73471 137.14085,213.0452 136.5332,211.34999 L 131.28141,211.34999 C 132.14224,213.01852 132.80415,214.65844 133.23456,216.24685 C 133.65232,217.82195 133.84219,219.36077 133.84221,220.86911 C 133.84221,222.73786 133.46785,224.17565 132.67032,225.21678 C 131.87279,226.25795 130.66291,226.87384 129.06784,227.04738 L 129.06784,210.2974 L 128.76401,210.2974 z M 128.76401,239.58698 L 128.76401,246.90938 C 129.89481,247.09551 130.84575,247.47326 131.58523,248.0535 C 132.67394,248.90781 133.23456,250.08244 133.23456,251.57741 C 133.23456,252.19143 133.08447,252.74441 132.84393,253.22494 C 132.60341,253.69213 132.28873,254.07543 131.84565,254.36907 C 131.50386,254.596 130.94322,254.7333 130.19632,254.82672 C 129.82768,254.87207 129.35631,254.89491 128.76401,254.91825 L 128.76401,262.14911 L 129.54527,262.14911 C 132.41894,262.14911 134.59274,261.48363 136.09917,260.13546 C 137.60564,258.77396 138.35615,256.77556 138.35615,254.18601 C 138.35615,252.73108 138.07039,251.40581 137.48808,250.20446 C 136.8931,248.9898 135.99429,247.85331 134.75368,246.77208 L 137.83531,246.77208 L 137.83531,239.58698 L 128.76401,239.58698 z M 128.76401,268.8308 L 128.76401,276.1532 C 130.03684,276.31612 131.07635,276.66253 131.84565,277.25156 C 132.90904,278.05245 133.40817,279.24045 133.40817,280.77546 C 133.40817,282.29717 132.90903,283.43938 131.84565,284.2536 C 131.07636,284.833 130.03684,285.19173 128.76401,285.35196 L 128.76401,292.81165 C 131.34394,292.56884 133.48385,291.73385 135.23111,290.24881 C 137.30723,288.47352 138.35615,286.1929 138.35615,283.42983 C 138.35615,281.86812 138.07039,280.49898 137.48808,279.31098 C 136.90575,278.12301 136.00694,277.00368 134.75368,276.0159 L 145.90833,276.0159 L 145.90833,268.8308 L 128.76401,268.8308 z M 128.76401,285.35196 L 128.76401,276.1532 C 128.27744,276.09091 127.76165,276.0159 127.20149,276.0159 C 125.17601,276.01592 123.62072,276.43734 122.55733,277.25156 C 121.49396,278.05247 120.95142,279.24045 120.95141,280.77546 C 120.95142,282.29717 121.49396,283.43938 122.55733,284.2536 C 123.62072,285.05449 125.17601,285.48927 127.20149,285.48925 C 127.76165,285.48925 128.27744,285.41322 128.76401,285.35196 z M 128.76401,298.21191 L 128.76401,305.39702 L 137.83531,305.39702 L 137.83531,298.21191 L 128.76401,298.21191 z M 128.76401,314.36695 L 128.76401,322.78771 C 129.28524,322.35037 129.93349,321.93454 130.76057,321.50629 L 137.83531,317.84509 L 137.83531,309.65316 L 129.76229,313.81777 C 129.40366,314.00539 129.08235,314.17998 128.76401,314.36695 z M 128.76401,322.78771 C 128.3917,323.10009 128.06881,323.43175 127.85254,323.74877 C 127.33352,324.4963 127.0713,325.46879 127.07128,326.72349 L 127.07128,328.92021 L 128.76401,328.92021 L 128.76401,322.78771 z M 128.76401,328.92021 L 128.76401,336.60873 L 137.83531,336.60873 L 137.83531,328.92021 L 128.76401,328.92021 z M 124.85771,217.66556 C 123.5665,217.66556 122.51756,218.05458 121.73267,218.85545 C 120.93515,219.64302 120.56079,220.68606 120.56078,221.96747 C 120.56079,223.35569 120.94238,224.48646 121.68927,225.35408 C 122.42353,226.22169 123.46521,226.74228 124.85771,226.95585 L 124.85771,217.66556 z M 108.27763,298.21191 L 113.83326,298.21191 L 113.83326,305.39702 L 108.27763,305.39702 L 108.27763,298.21191 z M 118.39061,321.14017 C 117.09937,321.1402 116.16983,321.48533 115.6128,322.19276 C 115.0558,322.88687 114.74474,324.0558 114.74473,325.6709 L 114.74473,328.92021 L 122.03649,328.92021 L 122.03649,325.6709 C 122.03651,324.0558 121.73811,322.88688 121.16843,322.19276 C 120.59878,321.48532 119.69455,321.14018 118.39061,321.14017 z "
       id="rect6176" />
    <g
       id="g5168"
       inkscape:export-filename="/home/lucas/projetos/riqueza/public/images/riqueza.png"
       inkscape:export-xdpi="90"
       inkscape:export-ydpi="90"
       transform="translate(-7.2069409,9.2127249)">
      <text
         sodipodi:linespacing="125%"
         id="text2197"
         y="42.144802"
         x="-138.94849"
         style="font-size:28px;font-style:normal;font-variant:normal;font-weight:bold;font-stretch:normal;text-align:start;line-height:125%;writing-mode:lr-tb;text-anchor:start;fill:url(#linearGradient6178);fill-opacity:1;stroke:none;stroke-width:1px;stroke-linecap:butt;stroke-linejoin:miter;stroke-opacity:1;font-family:Bitstream Vera Sans"
         xml:space="preserve"
         transform="matrix(0,-1,1,0,0,0)"><tspan
           style="font-size:28px;font-style:normal;font-variant:normal;font-weight:bold;font-stretch:normal;text-align:start;line-height:125%;writing-mode:lr-tb;text-anchor:start;fill:url(#linearGradient6178);fill-opacity:1;font-family:Bitstream Vera Sans"
           y="42.144802"
           x="-138.94849"
           id="tspan2199"
           sodipodi:role="line">Riqueza</tspan></text>
      <path
         sodipodi:nodetypes="ccscccccccccccccccsccscccccccccccccsccccccccccccccscccccccccccccccccscccccccccccccccccccccscccccccccccccsccsccscccccccscsccccccsc"
         id="rect2223"
         d="M 22.217068,144.6875 L 22.217068,194.56564 C 22.803225,198.43898 23.287856,202.57437 23.592068,207.03517 C 24.526598,220.73861 27.433299,236.89855 22.873318,244.08546 C 23.937742,245.35768 24.754538,246.40962 25.467068,247.31033 C 25.82721,233.25965 34.48832,217.43315 42.623318,216.56648 L 42.623318,144.6875 L 22.217068,144.6875 z M 23.060818,230.32597 C 25.745061,232.48089 25.327664,231.80803 23.060818,230.32597 z M 22.529568,246.45037 C 22.449169,248.44224 22.345817,250.38258 22.217068,252.25515 L 22.217068,292.88863 C 26.403262,303.47007 24.562235,305.56591 22.217068,306.93478 L 22.217068,324.70744 C 23.512969,327.66151 25.193335,331.16058 27.342068,335.31372 C 25.240183,334.31446 23.658086,333.48783 22.217068,332.73381 L 22.217068,340.47352 C 22.633445,341.662 23.035289,342.94814 23.373318,344.34338 C 23.740246,345.85789 23.154137,346.02653 22.217068,345.77666 L 22.217068,365.9859 C 22.234528,366.03833 22.262299,366.07662 22.279568,366.12923 C 22.244281,366.74485 22.23572,367.37593 22.217068,367.9925 L 22.217068,373.51062 C 22.846377,390.45832 27.946896,405.73832 22.217068,403.17951 L 22.217068,416.50902 C 25.67429,418.47231 29.669448,418.37026 22.217068,423.03044 L 22.217068,439.87148 C 27.006256,452.35544 20.752505,455.9208 26.560818,474.77184 C 24.864237,474.58093 23.427168,474.50505 22.217068,474.48519 L 22.217068,482.86987 C 25.752895,485.55616 28.035986,486.89349 22.217068,483.87317 L 22.217068,496.19938 C 26.473342,512.32081 24.514865,516.6526 22.217068,520.06348 L 22.217068,545.21754 C 23.133945,547.69393 24.878068,551.07672 23.810818,551.52398 C 22.961611,551.87984 22.867921,551.96128 22.217068,552.24062 L 22.217068,553.88889 C 28.389773,553.09781 37.207021,552.94361 22.217068,566.0001 L 22.217068,582.98447 C 25.1898,591.87236 27.099476,597.1062 28.185818,599.89717 C 29.582221,602.70225 29.944987,604.41673 28.185818,599.89717 C 26.822034,597.15763 24.503035,593.50552 22.217068,593.87739 L 22.217068,657.30003 C 22.657695,660.2369 23.077848,662.52593 23.435818,663.67812 C 22.988129,662.99664 22.57654,662.74605 22.217068,662.81815 L 22.217068,699.86844 C 22.379607,700.72751 22.535343,701.56092 22.717068,702.37668 C 22.535048,702.46788 22.387026,702.56174 22.217068,702.66333 L 22.217068,730.11064 C 27.3821,744.64339 35.350633,759.6573 33.498318,762.00112 C 28.931335,767.77989 23.845972,757.2499 22.217068,753.75976 L 22.217068,754.61973 C 22.618231,755.9591 23.232177,757.9556 24.185818,761.21281 C 23.402326,760.64955 22.879038,760.20716 22.217068,759.70787 L 22.217068,799.55305 C 23.104893,801.39368 23.7998,802.81006 24.935818,805.2145 C 24.403986,806.12405 23.403383,805.81155 22.217068,804.92785 L 22.217068,819.90562 C 30.28193,832.21986 30.709029,834.54363 22.217068,832.80514 L 22.217068,838.4666 C 22.744299,842.05608 22.676027,844.27883 22.217068,845.48967 L 22.217068,868.20715 C 28.874808,878.32044 26.182559,875.52399 22.217068,869.85542 L 22.217068,870.85872 C 24.702061,874.75648 27.078115,878.40866 28.810818,881.25 C 30.64765,876.60574 32.820437,872.42379 35.248318,869.42544 C 33.620405,859.96889 33.604271,853.49273 34.967068,840.61652 C 47.697752,809.67425 27.739243,845.19182 27.810818,845.05968 C 32.595977,836.22559 37.751476,828.55766 42.623318,819.97729 L 42.623318,815.9641 C 38.801122,819.00736 35.113795,823.10956 31.342068,826.49871 C 33.168599,822.6383 38.277868,815.15731 42.623318,808.65438 L 42.623318,803.99622 C 41.883599,804.79502 41.201922,805.52175 40.310818,806.50446 C 41.217678,805.20811 41.887566,804.16936 42.623318,803.06458 L 42.623318,786.65353 C 40.820335,784.83806 39.943397,781.15508 42.623318,772.24907 L 42.623318,763.00441 C 30.174475,765.7478 33.198515,765.60973 42.623318,752.82813 L 42.623318,717.71277 C 40.424476,719.28869 39.835211,719.13206 42.623318,716.0645 L 42.623318,637.95075 C 39.077184,641.3861 39.825079,638.39358 42.623318,632.93427 L 42.623318,557.0421 C 41.118124,556.64764 40.754408,553.90503 42.623318,546.65082 L 42.623318,514.40203 C 39.781395,516.27382 36.217762,518.78165 31.592068,522.2134 C 34.842128,513.79608 38.899914,503.59017 42.623318,494.12112 L 42.623318,481.2216 C 42.08394,481.8633 41.935039,481.5646 42.373318,479.71666 C 42.421676,479.51276 42.532821,479.31068 42.623318,479.07168 L 42.623318,475.34515 C 38.597701,479.63339 34.658806,483.81747 28.904568,489.89294 C 33.43208,484.1792 36.486705,480.0797 38.560818,477.13675 C 38.697534,476.77119 39.229562,476.08633 39.967068,475.13016 C 49.037784,461.29612 25.185587,484.07819 42.623318,455.42256 L 42.623318,441.51975 C 31.887485,453.16738 16.462341,473.69727 40.935818,423.96207 C 26.544867,433.6795 30.375061,432.27792 42.623318,417.29732 L 42.623318,415.57739 C 36.071783,420.8691 24.154523,430.18941 41.217068,407.83767 C 41.8283,406.78253 42.073436,406.34621 42.623318,405.4011 L 42.623318,400.95793 C 39.392351,404.24601 35.915348,406.91086 33.310818,406.40439 C 29.034506,405.57284 35.99405,395.72717 42.623318,385.90849 L 42.623318,371.86235 C 39.096439,374.9131 35.55814,377.77118 31.842068,377.88213 C 26.762649,378.03378 35.475721,371.30961 42.623318,362.11605 L 42.623318,355.23631 C 39.798938,358.95027 37.290006,361.48458 37.373318,357.2429 C 37.393494,356.21568 37.480859,355.30694 37.623318,354.448 C 27.382542,368.01366 23.858319,376.13375 39.717068,344.77336 C 40.377162,343.32463 41.498833,340.4095 42.623318,336.96199 L 42.623318,314.60282 C 40.552775,314.8951 37.478051,316.72396 32.998318,320.90925 C 34.016526,304.9183 40.766828,292.22499 42.623318,282.64068 L 42.623318,274.68598 C 41.748957,271.58223 39.532583,268.97327 35.279568,266.8746 C 28.366208,263.46319 25.60477,256.50422 25.467068,248.81528 C 25.036693,248.50739 24.580688,248.17425 23.935818,247.66865 C 23.462791,247.29779 22.995944,246.85843 22.529568,246.45037 z M 22.217068,874.94357 L 22.217068,924.24839 L 42.623318,924.24839 C 43.66389,877.80632 41.534971,904.67729 29.310818,911.20555 C 19.637877,927.26775 21.104633,901.95131 28.217068,882.82661 C 27.645281,882.08974 27.251925,881.63065 26.529568,880.67669 C 24.666769,878.21663 23.772263,876.99433 22.217068,874.94357 z "
         style="fill:url(#linearGradient6180);fill-opacity:1;stroke:none;stroke-width:0.5;stroke-miterlimit:4;stroke-dasharray:none;stroke-opacity:1" />
    </g>
  </g>
</svg>
